<?xml version="1.0" encoding="utf-8"?>
<!-- Generator: Adobe Illustrator 16.0.0, SVG Export Plug-In . SVG Version: 6.00 Build 0)  -->
<!DOCTYPE svg PUBLIC "-//W3C//DTD SVG 1.1//EN" "http://www.w3.org/Graphics/SVG/1.1/DTD/svg11.dtd">
<svg version="1.1" id="Capa_1" xmlns="http://www.w3.org/2000/svg" xmlns:xlink="http://www.w3.org/1999/xlink" x="0px" y="0px"
	 width="487.427px" height="174.854px" viewBox="13.883 5.199 487.427 174.854"
	 enable-background="new 13.883 5.199 487.427 174.854" xml:space="preserve">
<polygon fill="#2F3947" points="349.014,31.408 330.885,79.763 319.027,79.763 300.823,31.408 314.02,31.408 324.958,63.812 
	335.896,31.408 "/>
<path fill="#2F3947" d="M366.964,23.602h-12.526V11.077h12.526V23.602z M366.794,79.675h-12.196V31.323h12.196V79.675z"/>
<g>
	<g>
		<defs>
			<rect id="SVGID_1_" x="-141" y="-221.346" width="820.346" height="640.346"/>
		</defs>
		<clipPath id="SVGID_2_">
			<use xlink:href="#SVGID_1_"  overflow="visible"/>
		</clipPath>
		<path clip-path="url(#SVGID_2_)" fill="#2F3947" d="M425.78,55.459c0,0.78-0.034,1.586-0.119,2.425
			c-0.084,0.834-0.181,1.696-0.294,2.584h-38.582c0.443,1.394,1.072,2.714,1.879,3.968c0.805,1.255,1.795,2.337,2.968,3.261
			c1.163,0.914,2.487,1.64,3.961,2.17c1.478,0.529,3.104,0.79,4.888,0.79c2.174,0,4.343-0.373,6.516-1.126
			c2.172-0.75,3.982-1.768,5.43-3.047l7.598,7.598c-3.336,2.506-6.607,4.273-9.81,5.304c-3.205,1.031-6.584,1.544-10.147,1.544
			c-3.623,0-7.002-0.665-10.15-2.004c-3.145-1.334-5.872-3.144-8.18-5.431c-2.314-2.282-4.137-4.965-5.471-8.055
			c-1.34-3.09-2.007-6.389-2.007-9.897c0-3.506,0.667-6.807,2.007-9.895c1.334-3.095,3.172-5.777,5.508-8.06
			c2.336-2.282,5.067-4.092,8.184-5.426c3.117-1.34,6.457-2.005,10.021-2.005c3.4,0,6.658,0.628,9.776,1.876
			c3.115,1.254,5.87,2.995,8.265,5.223c2.395,2.224,4.285,4.884,5.683,7.974C425.09,48.32,425.78,51.727,425.78,55.459
			 M413.176,50.781c-0.947-3.063-2.628-5.521-5.056-7.39c-2.415-1.861-5.165-2.798-8.224-2.798c-3.004,0-5.711,0.938-8.101,2.798
			c-2.394,1.869-4.065,4.327-5.012,7.39H413.176z"/>
	</g>
	<g>
		<defs>
			<rect id="SVGID_3_" x="-141" y="-221.346" width="820.346" height="640.346"/>
		</defs>
		<clipPath id="SVGID_4_">
			<use xlink:href="#SVGID_3_"  overflow="visible"/>
		</clipPath>
		<polygon clip-path="url(#SVGID_4_)" fill="#2F3947" points="500.221,31.323 484.021,79.762 473.584,79.762 463.979,50.947 
			454.377,79.762 443.936,79.762 427.652,31.323 440.346,31.323 449.45,61.557 458.55,31.323 469.238,31.323 478.43,61.557 
			487.531,31.323 		"/>
	</g>
	<g>
		<defs>
			<rect id="SVGID_5_" x="-141" y="-221.346" width="820.346" height="640.346"/>
		</defs>
		<clipPath id="SVGID_6_">
			<use xlink:href="#SVGID_5_"  overflow="visible"/>
		</clipPath>
		<path clip-path="url(#SVGID_6_)" fill="#2F3947" d="M293.534,153.083H281.52v-28.767c0-1.721-0.263-3.237-0.793-4.541
			c-0.531-1.309-1.242-2.391-2.137-3.256c-0.892-0.859-1.91-1.502-3.057-1.916c-1.141-0.414-2.331-0.627-3.555-0.627
			c-1.844,0-3.658,0.324-5.442,0.959c-1.793,0.643-3.407,1.655-4.858,3.045v35.103h-12.006v-48.192h12.006l0.088,3.586
			c0.717-0.727,1.605-1.39,2.662-2.002c1.057-0.609,2.153-1.127,3.299-1.541c1.135-0.416,2.303-0.738,3.496-0.959
			c1.198-0.225,2.348-0.332,3.461-0.332c2.446,0,4.799,0.387,7.047,1.164c2.25,0.777,4.252,1.975,6.002,3.584
			c1.756,1.613,3.154,3.696,4.214,6.256c1.055,2.56,1.587,5.582,1.587,9.086L293.534,153.083L293.534,153.083z"/>
	</g>
	<g>
		<defs>
			<rect id="SVGID_7_" x="-141" y="-221.346" width="820.346" height="640.346"/>
		</defs>
		<clipPath id="SVGID_8_">
			<use xlink:href="#SVGID_7_"  overflow="visible"/>
		</clipPath>
		<path clip-path="url(#SVGID_8_)" fill="#2F3947" d="M351.48,128.904c0,0.779-0.043,1.582-0.125,2.416
			c-0.08,0.835-0.179,1.695-0.289,2.589h-38.525c0.445,1.389,1.072,2.706,1.876,3.957c0.804,1.252,1.793,2.335,2.961,3.254
			c1.165,0.916,2.488,1.639,3.959,2.166c1.472,0.53,3.099,0.793,4.879,0.793c2.171,0,4.334-0.374,6.505-1.123
			c2.17-0.753,3.975-1.767,5.42-3.048l7.584,7.589c-3.33,2.502-6.599,4.269-9.795,5.295c-3.197,1.028-6.572,1.542-10.131,1.542
			c-3.609,0-6.992-0.668-10.126-1.999c-3.146-1.335-5.866-3.144-8.179-5.419c-2.303-2.283-4.126-4.966-5.455-8.05
			c-1.34-3.085-2.001-6.376-2.001-9.882c0-3.504,0.661-6.797,2.001-9.877c1.329-3.088,3.167-5.769,5.499-8.049
			c2.336-2.276,5.058-4.086,8.176-5.42c3.106-1.334,6.443-2.002,10.002-2.002c3.388,0,6.642,0.627,9.759,1.875
			c3.111,1.254,5.863,2.99,8.252,5.215c2.39,2.222,4.279,4.877,5.672,7.963C350.786,121.773,351.48,125.18,351.48,128.904
			 M338.891,124.234c-0.945-3.057-2.627-5.52-5.045-7.381c-2.42-1.862-5.152-2.795-8.213-2.795c-3.002,0-5.701,0.933-8.09,2.795
			c-2.389,1.861-4.053,4.324-5.002,7.381H338.891z"/>
	</g>
	<g>
		<defs>
			<rect id="SVGID_9_" x="-141" y="-221.346" width="820.346" height="640.346"/>
		</defs>
		<clipPath id="SVGID_10_">
			<use xlink:href="#SVGID_9_"  overflow="visible"/>
		</clipPath>
		<path clip-path="url(#SVGID_10_)" fill="#2F3947" d="M300.711,55.684c0,0.777-0.046,1.577-0.125,2.408
			c-0.084,0.83-0.184,1.689-0.292,2.578h-38.375c0.444,1.383,1.069,2.695,1.871,3.941c0.798,1.247,1.786,2.326,2.942,3.242
			c1.168,0.912,2.484,1.633,3.953,2.157c1.467,0.53,3.082,0.79,4.856,0.79c2.156,0,4.317-0.372,6.479-1.118
			c2.158-0.75,3.955-1.758,5.397-3.036l7.56,7.559c-3.326,2.493-6.576,4.252-9.761,5.275c-3.186,1.025-6.551,1.536-10.091,1.536
			c-3.604,0-6.964-0.665-10.095-1.991c-3.128-1.33-5.843-3.131-8.138-5.399c-2.3-2.273-4.11-4.946-5.445-8.018
			c-1.324-3.073-1.989-6.352-1.989-9.842c0-3.49,0.665-6.771,1.989-9.839c1.335-3.077,3.162-5.747,5.488-8.018
			c2.324-2.27,5.04-4.071,8.14-5.4c3.1-1.33,6.423-1.995,9.966-1.995c3.378,0,6.614,0.625,9.719,1.869
			c3.1,1.248,5.838,2.978,8.219,5.194c2.381,2.213,4.272,4.859,5.646,7.933C300.016,48.581,300.711,51.973,300.711,55.684
			 M288.169,51.034c-0.944-3.046-2.616-5.498-5.026-7.353c-2.408-1.856-5.142-2.785-8.181-2.785c-2.991,0-5.683,0.929-8.06,2.785
			c-2.379,1.855-4.041,4.307-4.984,7.353H288.169z"/>
	</g>
	<g>
		<defs>
			<rect id="SVGID_11_" x="-141" y="-221.346" width="820.346" height="640.346"/>
		</defs>
		<clipPath id="SVGID_12_">
			<use xlink:href="#SVGID_11_"  overflow="visible"/>
		</clipPath>
		<path clip-path="url(#SVGID_12_)" fill="#2F3947" d="M392.588,109.893l-6.42,10.174c-1.172-1.277-2.459-2.403-3.875-3.379
			c-1.421-0.974-2.85-1.457-4.299-1.457c-0.777,0-1.622,0.181-2.54,0.541c-0.916,0.362-1.779,0.957-2.583,1.791
			c-0.809,0.838-1.494,1.935-2.043,3.293c-0.561,1.365-0.838,3.043-0.838,5.045v27.185h-12.004v-48.194h12.004v5.168
			c1.443-2.053,3.047-3.638,4.795-4.752c1.753-1.111,3.712-1.67,5.88-1.67c2.108,0,4.183,0.573,6.213,1.711
			C388.902,106.49,390.809,108.006,392.588,109.893"/>
	</g>
	<g>
		<defs>
			<rect id="SVGID_13_" x="-141" y="-221.346" width="820.346" height="640.346"/>
		</defs>
		<clipPath id="SVGID_14_">
			<use xlink:href="#SVGID_13_"  overflow="visible"/>
		</clipPath>
		<path clip-path="url(#SVGID_14_)" fill="#2F3947" d="M439.117,114.396h-5.087c1.278,2.502,1.919,5.166,1.919,7.998
			c0,2.176-0.404,4.271-1.212,6.301c-0.805,2.033-1.957,3.879-3.461,5.544c-1.499,1.669-3.318,3.088-5.461,4.252
			c-2.138,1.168-4.546,1.946-7.208,2.336c-1.838,0.278-3.211,0.708-4.129,1.29c-0.918,0.586-1.377,1.169-1.377,1.755
			s0.459,1.127,1.377,1.627c0.918,0.497,2.291,0.834,4.129,1c6.223,0.551,11.048,2.108,14.466,4.668
			c3.419,2.554,5.126,5.944,5.126,10.17c0,2.168-0.521,4.168-1.577,6.005c-1.056,1.833-2.563,3.416-4.529,4.751
			c-1.967,1.334-4.331,2.364-7.104,3.084c-2.771,0.724-5.867,1.087-9.3,1.087c-3.491,0-6.637-0.363-9.433-1.087
			c-2.799-0.72-5.192-1.731-7.188-3.04c-1.992-1.307-3.514-2.877-4.563-4.712c-1.058-1.836-1.582-3.864-1.582-6.088
			c0-3.331,0.951-6.124,2.856-8.379c1.901-2.249,5.005-3.935,9.312-5.042c-1.338-0.505-2.302-1.184-2.88-2.043
			c-0.587-0.865-0.851-1.74-0.794-2.625c0.055-0.893,0.43-1.741,1.128-2.548c0.692-0.804,1.681-1.431,2.96-1.875
			c-1.455-0.668-2.839-1.525-4.152-2.585c-1.316-1.057-2.51-2.277-3.573-3.666c-1.062-1.393-1.897-2.948-2.517-4.67
			c-0.611-1.727-0.924-3.557-0.924-5.51c0-2.608,0.555-5.056,1.669-7.332c1.107-2.28,2.609-4.267,4.499-5.961
			c1.895-1.697,4.085-3.031,6.59-4c2.504-0.975,5.143-1.465,7.92-1.465c2.725,0,5.256,0.418,7.588,1.252h16.512V114.396
			L439.117,114.396z M426.195,161.337c0-1.944-0.985-3.358-2.953-4.251c-1.964-0.886-4.502-1.332-7.598-1.332
			c-3.321,0-5.94,0.471-7.849,1.414c-1.909,0.949-2.868,2.339-2.868,4.169c0,1.89,0.996,3.31,2.992,4.252
			c1.993,0.947,4.571,1.422,7.725,1.422c3.209,0,5.771-0.463,7.682-1.377C425.238,164.712,426.195,163.283,426.195,161.337
			 M423.941,122.396c0-1.217-0.236-2.356-0.705-3.416c-0.47-1.053-1.101-1.984-1.896-2.793c-0.796-0.807-1.736-1.442-2.81-1.918
			c-1.072-0.473-2.218-0.709-3.429-0.709c-1.209,0-2.338,0.236-3.384,0.709c-1.049,0.476-1.97,1.111-2.768,1.918
			c-0.802,0.809-1.431,1.74-1.902,2.793c-0.466,1.06-0.696,2.199-0.696,3.416c0,1.228,0.23,2.381,0.696,3.465
			c0.474,1.086,1.101,2.029,1.902,2.836c0.798,0.805,1.719,1.443,2.768,1.918c1.046,0.473,2.175,0.707,3.384,0.707
			c1.211,0,2.355-0.234,3.429-0.707c1.071-0.475,2.014-1.113,2.81-1.918c0.797-0.807,1.428-1.75,1.896-2.836
			C423.705,124.777,423.941,123.623,423.941,122.396"/>
	</g>
	<g>
		<defs>
			<rect id="SVGID_15_" x="-141" y="-221.346" width="820.346" height="640.346"/>
		</defs>
		<clipPath id="SVGID_16_">
			<use xlink:href="#SVGID_15_"  overflow="visible"/>
		</clipPath>
		<path clip-path="url(#SVGID_16_)" fill="#2F3947" d="M492.727,104.807l-21.679,57.28c-1.613,4.282-3.725,7.366-6.338,9.259
			c-2.61,1.887-5.727,2.834-9.338,2.834c-0.554,0-1.167-0.043-1.831-0.125c-0.665-0.086-1.309-0.209-1.92-0.375l-4.001-11.174
			c0.942,0.444,1.917,0.793,2.918,1.04c1.002,0.25,1.947,0.376,2.835,0.376c1.886,0,3.61-0.43,5.169-1.29
			c1.556-0.862,2.749-2.458,3.584-4.792l1.667-4.838l-18.591-48.195h13.093l11.085,31.02l10.424-31.02H492.727L492.727,104.807z"/>
	</g>
	<g>
		<defs>
			<rect id="SVGID_17_" x="-141" y="-221.346" width="820.346" height="640.346"/>
		</defs>
		<clipPath id="SVGID_18_">
			<use xlink:href="#SVGID_17_"  overflow="visible"/>
		</clipPath>
		<path clip-path="url(#SVGID_18_)" fill="#2F3947" d="M244.923,79.702h-14.615l-4.871-15.586c-0.514-1.712-1.158-3.284-1.922-4.71
			c-0.773-1.426-1.693-2.657-2.774-3.683c-1.087-1.029-2.381-1.826-3.891-2.397c-1.513-0.569-3.291-0.859-5.339-0.859h-4.956v27.235
			h-13.106V11.274l27.015-0.085c2.912,0,5.619,0.497,8.127,1.498c2.507,0.998,4.673,2.383,6.493,4.153
			c1.824,1.771,3.249,3.854,4.278,6.254c1.021,2.397,1.537,4.995,1.537,7.796c0,1.995-0.313,3.935-0.937,5.819
			c-0.626,1.887-1.505,3.631-2.637,5.226c-1.134,1.601-2.481,3.013-4.045,4.237c-1.553,1.228-3.272,2.156-5.143,2.785
			c2.157,0.801,3.914,1.956,5.276,3.469c1.36,1.512,2.444,3.328,3.238,5.44c0.393,0.969,0.764,1.94,1.103,2.91
			c0.339,0.971,0.691,1.987,1.063,3.04c0.368,1.058,0.764,2.2,1.192,3.423c0.425,1.235,0.895,2.588,1.404,4.069
			c0.628,1.886,1.211,3.501,1.758,4.84C243.716,77.492,244.295,78.676,244.923,79.702 M227.629,31.829
			c0-1.598-0.304-3.055-0.906-4.369c-0.599-1.313-1.407-2.452-2.435-3.426c-1.029-0.971-2.245-1.726-3.642-2.269
			c-1.402-0.542-2.9-0.814-4.497-0.814h-9.594v21.325h9.594c1.597,0,3.095-0.24,4.497-0.723c1.397-0.491,2.613-1.188,3.642-2.104
			c1.028-0.912,1.836-2.015,2.435-3.294C227.325,34.869,227.629,33.428,227.629,31.829"/>
	</g>
	<g>
		<defs>
			<rect id="SVGID_19_" x="-141" y="-221.346" width="820.346" height="640.346"/>
		</defs>
		<clipPath id="SVGID_20_">
			<use xlink:href="#SVGID_19_"  overflow="visible"/>
		</clipPath>
		<polygon clip-path="url(#SVGID_20_)" fill="#2F3947" points="237.923,153.077 193.448,153.077 193.448,85.774 237.923,85.774 
			237.923,96.557 206.251,96.557 206.251,112.646 237.501,112.646 237.501,123.177 206.251,123.177 206.251,141.705 
			237.923,141.705 		"/>
	</g>
	<g>
		<defs>
			<rect id="SVGID_21_" x="-141" y="-221.346" width="820.346" height="640.346"/>
		</defs>
		<clipPath id="SVGID_22_">
			<use xlink:href="#SVGID_21_"  overflow="visible"/>
		</clipPath>
		<polygon clip-path="url(#SVGID_22_)" fill="#D53541" points="88.183,127.143 128.683,44.402 114.689,37.549 70.828,127.143 		"/>
	</g>
	<g>
		<defs>
			<rect id="SVGID_23_" x="-141" y="-221.346" width="820.346" height="640.346"/>
		</defs>
		<clipPath id="SVGID_24_">
			<use xlink:href="#SVGID_23_"  overflow="visible"/>
		</clipPath>
		<polygon clip-path="url(#SVGID_24_)" fill="#D53541" points="134.895,64.669 103.779,127.143 121.194,127.143 148.906,71.507 		
			"/>
	</g>
	<g>
		<defs>
			<rect id="SVGID_25_" x="-141" y="-221.346" width="820.346" height="640.346"/>
		</defs>
		<clipPath id="SVGID_26_">
			<use xlink:href="#SVGID_25_"  overflow="visible"/>
		</clipPath>
		<polygon clip-path="url(#SVGID_26_)" fill="#D53541" points="86.113,59.263 87.879,55.646 74.123,48.928 73,51.231 72.725,51.104 
			40.664,119.725 37.062,127.143 54.24,127.484 57.156,121.241 		"/>
	</g>
	<g>
		<defs>
			<rect id="SVGID_27_" x="-141" y="-221.346" width="820.346" height="640.346"/>
		</defs>
		<clipPath id="SVGID_28_">
			<use xlink:href="#SVGID_27_"  overflow="visible"/>
		</clipPath>
		<path clip-path="url(#SVGID_28_)" fill="#2F3947" d="M172.642,153.077H15.528V8.941h157.114V153.077z M26.018,142.583h136.133
			V19.436H26.018V142.583z"/>
	</g>
</g>
</svg>
